<?xml version="1.0" encoding="UTF-8" standalone="no"?>
<!DOCTYPE svg PUBLIC "-//W3C//DTD SVG 1.1//EN"
 "http://www.w3.org/Graphics/SVG/1.1/DTD/svg11.dtd">
<!-- Generated by graphviz version 2.42.4 (0)
 -->
<!-- Title: G Pages: 1 -->
<svg width="1494pt" height="425pt"
 viewBox="0.00 0.00 1494.40 425.14" xmlns="http://www.w3.org/2000/svg" xmlns:xlink="http://www.w3.org/1999/xlink">
<g id="graph0" class="graph" transform="scale(1 1) rotate(0) translate(25.2 399.94)">
<title>G</title>
<polygon fill="white" stroke="transparent" points="-25.2,25.2 -25.2,-399.94 1469.2,-399.94 1469.2,25.2 -25.2,25.2"/>
<!-- md -->
<g id="node1" class="node">
<title>md</title>
<path fill="#e0f2fe" stroke="#334155" d="M172,-276C172,-276 12,-276 12,-276 6,-276 0,-270 0,-264 0,-264 0,-248 0,-248 0,-242 6,-236 12,-236 12,-236 172,-236 172,-236 178,-236 184,-242 184,-248 184,-248 184,-264 184,-264 184,-270 178,-276 172,-276"/>
<text text-anchor="middle" x="92" y="-259.6" font-family="Noto Sans CJK SC" font-size="13.00">院校 md</text>
<text text-anchor="middle" x="92" y="-245.6" font-family="Noto Sans CJK SC" font-size="13.00">学院/系/学位/专业/URL/事实</text>
</g>
<!-- parse -->
<g id="node2" class="node">
<title>parse</title>
<path fill="#dcfce7" stroke="#334155" d="M329,-283C329,-283 245,-283 245,-283 239,-283 233,-277 233,-271 233,-271 233,-241 233,-241 233,-235 239,-229 245,-229 245,-229 329,-229 329,-229 335,-229 341,-235 341,-241 341,-241 341,-271 341,-271 341,-277 335,-283 329,-283"/>
<text text-anchor="middle" x="287" y="-266.6" font-family="Noto Sans CJK SC" font-size="13.00">Catalog Parser</text>
<text text-anchor="middle" x="287" y="-252.6" font-family="Noto Sans CJK SC" font-size="13.00">Python</text>
<text text-anchor="middle" x="287" y="-238.6" font-family="Noto Sans CJK SC" font-size="13.00">解析表格和标题</text>
</g>
<!-- md&#45;&gt;parse -->
<g id="edge1" class="edge">
<title>md&#45;&gt;parse</title>
<path fill="none" stroke="#475569" d="M184.13,-256C197.82,-256 211.66,-256 224.53,-256"/>
<polygon fill="#475569" stroke="#475569" points="224.84,-258.8 232.84,-256 224.84,-253.2 224.84,-258.8"/>
</g>
<!-- validate -->
<g id="node3" class="node">
<title>validate</title>
<path fill="#fef9c3" stroke="#334155" d="M475,-290C475,-290 402,-290 402,-290 396,-290 390,-284 390,-278 390,-278 390,-234 390,-234 390,-228 396,-222 402,-222 402,-222 475,-222 475,-222 481,-222 487,-228 487,-234 487,-234 487,-278 487,-278 487,-284 481,-290 475,-290"/>
<text text-anchor="middle" x="438.5" y="-273.6" font-family="Noto Sans CJK SC" font-size="13.00">校验与版本</text>
<text text-anchor="middle" x="438.5" y="-259.6" font-family="Noto Sans CJK SC" font-size="13.00">字段完整性</text>
<text text-anchor="middle" x="438.5" y="-245.6" font-family="Noto Sans CJK SC" font-size="13.00">source_hash</text>
<text text-anchor="middle" x="438.5" y="-231.6" font-family="Noto Sans CJK SC" font-size="13.00">version</text>
</g>
<!-- parse&#45;&gt;validate -->
<g id="edge2" class="edge">
<title>parse&#45;&gt;validate</title>
<path fill="none" stroke="#475569" d="M341.13,-256C354.2,-256 368.23,-256 381.43,-256"/>
<polygon fill="#475569" stroke="#475569" points="381.52,-258.8 389.52,-256 381.52,-253.2 381.52,-258.8"/>
</g>
<!-- entries -->
<g id="node4" class="node">
<title>entries</title>
<path fill="#f0fdf4" stroke="#334155" d="M672,-276C672,-276 548,-276 548,-276 542,-276 536,-270 536,-264 536,-264 536,-248 536,-248 536,-242 542,-236 548,-236 548,-236 672,-236 672,-236 678,-236 684,-242 684,-248 684,-248 684,-264 684,-264 684,-270 678,-276 672,-276"/>
<text text-anchor="middle" x="610" y="-259.6" font-family="Noto Sans CJK SC" font-size="13.00">catalog_entries.jsonl</text>
<text text-anchor="middle" x="610" y="-245.6" font-family="Noto Sans CJK SC" font-size="13.00">用于目录检索</text>
</g>
<!-- validate&#45;&gt;entries -->
<g id="edge3" class="edge">
<title>validate&#45;&gt;entries</title>
<path fill="none" stroke="#475569" d="M487.17,-256C499.77,-256 513.74,-256 527.59,-256"/>
<polygon fill="#475569" stroke="#475569" points="527.72,-258.8 535.72,-256 527.72,-253.2 527.72,-258.8"/>
</g>
<!-- urls -->
<g id="node5" class="node">
<title>urls</title>
<path fill="#f0fdf4" stroke="#334155" d="M663.5,-182C663.5,-182 556.5,-182 556.5,-182 550.5,-182 544.5,-176 544.5,-170 544.5,-170 544.5,-154 544.5,-154 544.5,-148 550.5,-142 556.5,-142 556.5,-142 663.5,-142 663.5,-142 669.5,-142 675.5,-148 675.5,-154 675.5,-154 675.5,-170 675.5,-170 675.5,-176 669.5,-182 663.5,-182"/>
<text text-anchor="middle" x="610" y="-165.6" font-family="Noto Sans CJK SC" font-size="13.00">url_manifest.jsonl</text>
<text text-anchor="middle" x="610" y="-151.6" font-family="Noto Sans CJK SC" font-size="13.00">用于 L2 地址簿</text>
</g>
<!-- validate&#45;&gt;urls -->
<g id="edge4" class="edge">
<title>validate&#45;&gt;urls</title>
<path fill="none" stroke="#475569" d="M487.17,-229.57C511.75,-215.93 541.51,-199.43 565.47,-186.14"/>
<polygon fill="#475569" stroke="#475569" points="567.07,-188.46 572.7,-182.13 564.35,-183.56 567.07,-188.46"/>
</g>
<!-- facts -->
<g id="node6" class="node">
<title>facts</title>
<path fill="#f0fdf4" stroke="#334155" d="M659.5,-370C659.5,-370 560.5,-370 560.5,-370 554.5,-370 548.5,-364 548.5,-358 548.5,-358 548.5,-342 548.5,-342 548.5,-336 554.5,-330 560.5,-330 560.5,-330 659.5,-330 659.5,-330 665.5,-330 671.5,-336 671.5,-342 671.5,-342 671.5,-358 671.5,-358 671.5,-364 665.5,-370 659.5,-370"/>
<text text-anchor="middle" x="610" y="-353.6" font-family="Noto Sans CJK SC" font-size="13.00">quick_facts.jsonl</text>
<text text-anchor="middle" x="610" y="-339.6" font-family="Noto Sans CJK SC" font-size="13.00">用于高频事实</text>
</g>
<!-- validate&#45;&gt;facts -->
<g id="edge5" class="edge">
<title>validate&#45;&gt;facts</title>
<path fill="none" stroke="#475569" d="M487.17,-282.43C511.75,-296.07 541.51,-312.57 565.47,-325.86"/>
<polygon fill="#475569" stroke="#475569" points="564.35,-328.44 572.7,-329.87 567.07,-323.54 564.35,-328.44"/>
</g>
<!-- os -->
<g id="node7" class="node">
<title>os</title>
<path fill="#ecfdf5" stroke="#334155" d="M867,-229C867,-229 793,-229 793,-229 787,-229 781,-223 781,-217 781,-217 781,-201 781,-201 781,-195 787,-189 793,-189 793,-189 867,-189 867,-189 873,-189 879,-195 879,-201 879,-201 879,-217 879,-217 879,-223 873,-229 867,-229"/>
<text text-anchor="middle" x="830" y="-212.6" font-family="Noto Sans CJK SC" font-size="13.00">OpenSearch</text>
<text text-anchor="middle" x="830" y="-198.6" font-family="Noto Sans CJK SC" font-size="13.00">三个 L1 index</text>
</g>
<!-- entries&#45;&gt;os -->
<g id="edge6" class="edge">
<title>entries&#45;&gt;os</title>
<path fill="none" stroke="#475569" d="M684.2,-240.22C713.13,-233.98 745.85,-226.93 772.86,-221.1"/>
<polygon fill="#475569" stroke="#475569" points="773.45,-223.84 780.68,-219.42 772.27,-218.37 773.45,-223.84"/>
</g>
<!-- redis -->
<g id="node8" class="node">
<title>redis</title>
<path fill="#ecfdf5" stroke="#334155" d="M915,-323C915,-323 745,-323 745,-323 739,-323 733,-317 733,-311 733,-311 733,-295 733,-295 733,-289 739,-283 745,-283 745,-283 915,-283 915,-283 921,-283 927,-289 927,-295 927,-295 927,-311 927,-311 927,-317 921,-323 915,-323"/>
<text text-anchor="middle" x="830" y="-306.6" font-family="Noto Sans CJK SC" font-size="13.00">Redis</text>
<text text-anchor="middle" x="830" y="-292.6" font-family="Noto Sans CJK SC" font-size="13.00">热门目录/URL scope/结果缓存</text>
</g>
<!-- entries&#45;&gt;redis -->
<g id="edge9" class="edge">
<title>entries&#45;&gt;redis</title>
<path fill="none" stroke="#475569" d="M684.06,-272.73C692.13,-274.53 700.24,-276.32 708,-278 713.55,-279.2 719.24,-280.42 725,-281.65"/>
<polygon fill="#475569" stroke="#475569" points="724.46,-284.39 732.87,-283.31 725.62,-278.92 724.46,-284.39"/>
</g>
<!-- urls&#45;&gt;os -->
<g id="edge7" class="edge">
<title>urls&#45;&gt;os</title>
<path fill="none" stroke="#475569" d="M675.52,-175.91C706.39,-182.57 743.01,-190.46 772.73,-196.87"/>
<polygon fill="#475569" stroke="#475569" points="772.51,-199.69 780.92,-198.64 773.69,-194.21 772.51,-199.69"/>
</g>
<!-- urls&#45;&gt;redis -->
<g id="edge10" class="edge">
<title>urls&#45;&gt;redis</title>
<path fill="none" stroke="#475569" d="M637.56,-182.2C661.9,-200.4 699.18,-227.52 733,-249 749.24,-259.31 767.54,-269.86 783.77,-278.86"/>
<polygon fill="#475569" stroke="#475569" points="782.71,-281.48 791.07,-282.89 785.41,-276.57 782.71,-281.48"/>
</g>
<!-- fetch -->
<g id="node9" class="node">
<title>fetch</title>
<path fill="#fff7ed" stroke="#334155" d="M911.5,-54C911.5,-54 748.5,-54 748.5,-54 742.5,-54 736.5,-48 736.5,-42 736.5,-42 736.5,-12 736.5,-12 736.5,-6 742.5,0 748.5,0 748.5,0 911.5,0 911.5,0 917.5,0 923.5,-6 923.5,-12 923.5,-12 923.5,-42 923.5,-42 923.5,-48 917.5,-54 911.5,-54"/>
<text text-anchor="middle" x="830" y="-37.6" font-family="Noto Sans CJK SC" font-size="13.00">URL Crawler</text>
<text text-anchor="middle" x="830" y="-23.6" font-family="Noto Sans CJK SC" font-size="13.00">抓取 HTML/PDF</text>
<text text-anchor="middle" x="830" y="-9.6" font-family="Noto Sans CJK SC" font-size="13.00">生成 normalized markdown</text>
</g>
<!-- urls&#45;&gt;fetch -->
<g id="edge12" class="edge">
<title>urls&#45;&gt;fetch</title>
<path fill="none" stroke="#475569" d="M632.98,-141.79C651.94,-125.01 680.52,-101.18 708,-84 723.2,-74.5 740.23,-65.55 756.61,-57.67"/>
<polygon fill="#475569" stroke="#475569" points="758.05,-60.09 764.08,-54.14 755.65,-55.03 758.05,-60.09"/>
</g>
<!-- facts&#45;&gt;os -->
<g id="edge8" class="edge">
<title>facts&#45;&gt;os</title>
<path fill="none" stroke="#475569" d="M637.56,-329.8C661.9,-311.6 699.18,-284.48 733,-263 749.24,-252.69 767.54,-242.14 783.77,-233.14"/>
<polygon fill="#475569" stroke="#475569" points="785.41,-235.43 791.07,-229.11 782.71,-230.52 785.41,-235.43"/>
</g>
<!-- facts&#45;&gt;redis -->
<g id="edge11" class="edge">
<title>facts&#45;&gt;redis</title>
<path fill="none" stroke="#475569" d="M659.04,-370.1C675,-374.3 692.83,-376.32 709,-372 741.12,-363.42 773.57,-343.97 796.61,-327.89"/>
<polygon fill="#475569" stroke="#475569" points="798.25,-330.16 803.15,-323.25 795.01,-325.6 798.25,-330.16"/>
</g>
<!-- storage -->
<g id="node10" class="node">
<title>storage</title>
<path fill="#fff7ed" stroke="#334155" d="M1242,-52C1242,-52 1084,-52 1084,-52 1078,-52 1072,-46 1072,-40 1072,-40 1072,-24 1072,-24 1072,-18 1078,-12 1084,-12 1084,-12 1242,-12 1242,-12 1248,-12 1254,-18 1254,-24 1254,-24 1254,-40 1254,-40 1254,-46 1248,-52 1242,-52"/>
<text text-anchor="middle" x="1163" y="-35.6" font-family="Noto Sans CJK SC" font-size="13.00">Object Storage</text>
<text text-anchor="middle" x="1163" y="-21.6" font-family="Noto Sans CJK SC" font-size="13.00">原文快照 + normalized 文件</text>
</g>
<!-- fetch&#45;&gt;storage -->
<g id="edge13" class="edge">
<title>fetch&#45;&gt;storage</title>
<path fill="none" stroke="#475569" d="M923.64,-28.4C967.3,-29.06 1019.42,-29.85 1063.77,-30.52"/>
<polygon fill="#475569" stroke="#475569" points="1063.91,-33.32 1071.95,-30.64 1064,-27.72 1063.91,-33.32"/>
</g>
<!-- wk -->
<g id="node11" class="node">
<title>wk</title>
<path fill="#fff7ed" stroke="#334155" d="M1432,-101C1432,-101 1315,-101 1315,-101 1309,-101 1303,-95 1303,-89 1303,-89 1303,-59 1303,-59 1303,-53 1309,-47 1315,-47 1315,-47 1432,-47 1432,-47 1438,-47 1444,-53 1444,-59 1444,-59 1444,-89 1444,-89 1444,-95 1438,-101 1432,-101"/>
<text text-anchor="middle" x="1373.5" y="-84.6" font-family="Noto Sans CJK SC" font-size="13.00">WeKnora</text>
<text text-anchor="middle" x="1373.5" y="-70.6" font-family="Noto Sans CJK SC" font-size="13.00">导入正文 + metadata</text>
<text text-anchor="middle" x="1373.5" y="-56.6" font-family="Noto Sans CJK SC" font-size="13.00">生成 knowledge_id</text>
</g>
<!-- storage&#45;&gt;wk -->
<g id="edge14" class="edge">
<title>storage&#45;&gt;wk</title>
<path fill="none" stroke="#475569" d="M1254.24,-50.18C1267.73,-52.89 1281.54,-55.68 1294.74,-58.34"/>
<polygon fill="#475569" stroke="#475569" points="1294.47,-61.14 1302.87,-59.97 1295.58,-55.65 1294.47,-61.14"/>
</g>
<!-- wk&#45;&gt;urls -->
<g id="edge15" class="edge">
<title>wk&#45;&gt;urls</title>
<path fill="none" stroke="#475569" stroke-dasharray="5,2" d="M1302.83,-83.89C1294.8,-84.97 1286.72,-86.03 1279,-87 1062.81,-114.16 806.64,-141.6 683.81,-154.46"/>
<polygon fill="#475569" stroke="#475569" points="683.22,-151.71 675.55,-155.32 683.8,-157.28 683.22,-151.71"/>
<text text-anchor="middle" x="999.5" y="-129.2" font-family="Noto Sans CJK SC" font-size="11.00">回写 knowledge_id</text>
</g>
</g>
</svg>
